<?xml version="1.0" standalone="no"?>
<!DOCTYPE svg PUBLIC "-//W3C//DTD SVG 20010904//EN"
 "http://www.w3.org/TR/2001/REC-SVG-20010904/DTD/svg10.dtd">
<svg version="1.0" xmlns="http://www.w3.org/2000/svg"
 width="300.000000pt" height="300.000000pt" viewBox="0 0 300.000000 300.000000"
 preserveAspectRatio="xMidYMid meet">
<metadata>
Created by potrace 1.11, written by Peter Selinger 2001-2013
</metadata>
<g transform="translate(0.000000,300.000000) scale(0.100000,-0.100000)"
fill="#000000" stroke="none">
<path d="M0 1500 l0 -1500 1500 0 1500 0 0 1500 0 1500 -1500 0 -1500 0 0
-1500z m1640 545 c118 -4 218 -9 221 -13 4 -4 9 -182 13 -396 l6 -389 -367 6
c-201 4 -368 9 -371 11 -6 7 -23 768 -17 784 4 10 37 12 152 8 82 -3 245 -8
363 -11z m-239 -875 c-9 -5 -8 -10 4 -20 23 -19 18 -40 -10 -40 -14 0 -25 4
-25 10 0 5 7 7 15 4 8 -4 15 -2 15 4 0 5 -7 12 -15 16 -18 7 -20 33 -2 39 17
6 32 -4 18 -13z m78 -7 c9 -17 11 -17 25 2 15 19 15 18 15 -20 0 -22 -3 -33
-7 -25 -9 19 -42 22 -42 4 0 -8 -5 -14 -10 -14 -6 0 -10 16 -8 35 2 38 12 44
27 18z m106 0 c6 -17 7 -17 16 0 16 28 29 20 29 -18 0 -19 -4 -35 -10 -35 -5
0 -10 6 -10 13 0 7 -8 13 -19 13 -11 0 -17 -5 -14 -13 3 -7 0 -13 -6 -13 -6 0
-11 16 -11 35 0 37 13 47 25 18z m-286 -164 c15 -43 14 -54 -4 -39 -12 10 -18
10 -32 -1 -15 -12 -16 -12 -10 4 4 11 10 30 13 43 8 33 20 30 33 -7z m91 21
c0 -5 -7 -10 -15 -10 -8 0 -15 -9 -15 -20 0 -11 5 -20 11 -20 6 0 9 7 5 15 -3
9 0 15 9 15 20 0 19 -36 -1 -44 -34 -13 -59 35 -32 62 15 15 38 16 38 2z m90
0 c0 -5 -8 -10 -17 -11 -11 0 -13 -3 -5 -6 6 -2 12 -9 12 -14 0 -6 -4 -7 -10
-4 -5 3 -10 -1 -10 -9 0 -10 6 -13 15 -10 8 4 15 1 15 -6 0 -6 -10 -10 -22 -8
-23 3 -35 35 -24 64 6 16 46 19 46 4z m80 -11 c0 12 5 21 10 21 6 0 10 -18 10
-40 0 -45 -10 -50 -34 -17 -12 15 -15 16 -12 5 3 -10 1 -20 -4 -23 -6 -4 -10
12 -10 37 l1 43 19 -24 c20 -23 20 -23 20 -2z m95 11 c3 -5 -1 -10 -9 -10 -9
0 -16 -9 -16 -20 0 -12 7 -20 17 -20 13 0 14 -3 6 -11 -19 -19 -43 -2 -43 29
0 16 3 32 7 35 10 10 31 8 38 -3z m58 -2 c4 -10 8 -9 16 2 16 24 20 8 8 -33
-14 -42 -27 -49 -27 -13 0 14 -4 28 -10 31 -5 3 -10 10 -10 16 0 13 17 11 23
-3z"/>
<path d="M1319 2003 l-136 -4 -6 -136 c-4 -75 -7 -234 -7 -355 l0 -218 143 0
c78 0 226 3 330 7 l187 6 0 214 0 214 -22 -15 c-24 -17 -98 -22 -98 -7 0 5 16
12 35 15 60 12 55 30 -5 23 -53 -6 -160 -51 -160 -66 0 -5 28 -11 61 -14 69
-6 95 -23 84 -56 -16 -51 -183 -107 -245 -81 -16 7 -30 18 -30 25 0 14 56 29
72 19 11 -7 104 14 141 33 43 21 32 33 -31 33 -75 0 -101 17 -87 56 27 77 213
124 269 68 15 -14 16 -10 16 48 0 35 3 93 7 131 l6 67 -194 -2 c-107 -1 -255
-4 -330 -5z m139 -236 c2 -9 -14 -39 -36 -65 -62 -74 -75 -107 -69 -169 5 -49
4 -52 -12 -43 -23 12 -45 64 -37 86 3 9 -10 2 -31 -15 -43 -35 -68 -39 -82
-13 -24 46 63 177 148 222 46 25 114 23 119 -3z m-42 -213 c-25 -18 -36 -18
-36 1 0 19 32 37 45 24 7 -7 4 -15 -9 -25z"/>
<path d="M1385 1744 c-38 -19 -125 -104 -149 -145 -18 -30 -18 -31 0 -21 25
14 198 182 188 182 -5 0 -22 -7 -39 -16z"/>
</g>
</svg>
